<svg aria-hidden="true" style="position: absolute; width: 0; height: 0; overflow: hidden;" version="1.1" xmlns="http://www.w3.org/2000/svg" xmlns:xlink="http://www.w3.org/1999/xlink">
<defs>
<symbol id="icon-Vector" viewBox="0 0 36 32">
<path fill="#070033" style="fill: var(--color1, #070033)" d="M0 0h36v4h-36v-4zM0 14h36v4h-36v-4zM0 28h36v4h-36v-4z"></path>
</symbol>
<symbol id="icon-Bell" viewBox="0 0 34 32">
<path fill="#1749b3" style="fill: var(--color1, #1749b3)" d="M0.422 22.915c0.13-0.046 0.266-0.108 0.371-0.196 0.125-0.105 0.176-0.241 0.21-0.384 0.044-0.184 0.061-0.379 0.114-0.563 0.020-0.068 0.057-0.094 0.074-0.106 0.041-0.029 0.083-0.037 0.121-0.034 0.046 0.003 0.11 0.021 0.151 0.098 0.006 0.011 0.014 0.028 0.019 0.051 0.004 0.017 0.006 0.070 0.010 0.092 0.010 0.054 0.018 0.108 0.026 0.162 0.026 0.18 0.041 0.334 0.124 0.499 0.113 0.225 0.226 0.363 0.379 0.424 0.148 0.059 0.325 0.048 0.551 0.002 0.022-0.005 0.043-0.010 0.064-0.013 0.1-0.017 0.195 0.048 0.215 0.147s-0.044 0.196-0.143 0.218c-0.021 0.005-0.041 0.009-0.061 0.013-0.306 0.076-0.659 0.346-0.865 0.582-0.063 0.073-0.156 0.277-0.251 0.407-0.070 0.096-0.148 0.159-0.214 0.181-0.044 0.015-0.081 0.013-0.112 0.005-0.045-0.011-0.082-0.035-0.11-0.074-0.016-0.021-0.030-0.049-0.037-0.085-0.003-0.017-0.004-0.061-0.004-0.081-0.019-0.066-0.043-0.131-0.060-0.198-0.041-0.16-0.121-0.261-0.217-0.394-0.089-0.125-0.185-0.203-0.326-0.266-0.018-0.004-0.166-0.041-0.218-0.061-0.076-0.030-0.113-0.081-0.126-0.109-0.022-0.047-0.025-0.087-0.020-0.121 0.007-0.050 0.029-0.093 0.069-0.128 0.025-0.021 0.062-0.042 0.111-0.053 0.038-0.008 0.14-0.013 0.154-0.013zM1.288 22.655c0.007 0.015 0.014 0.031 0.022 0.046 0.165 0.329 0.349 0.513 0.574 0.603l0.008 0.003c-0.15 0.111-0.286 0.236-0.39 0.355-0.043 0.049-0.099 0.151-0.16 0.256-0.056-0.181-0.146-0.308-0.261-0.468-0.087-0.122-0.179-0.214-0.291-0.288 0.087-0.045 0.17-0.097 0.243-0.158 0.121-0.102 0.2-0.22 0.256-0.348z"></path>
<path fill="#1749b3" style="fill: var(--color1, #1749b3)" d="M4.441 0.944c0 0.401-0.325 0.726-0.726 0.726s-0.726-0.325-0.726-0.726c0-0.401 0.325-0.726 0.726-0.726s0.726 0.325 0.726 0.726z"></path>
<path fill="#1749b3" style="fill: var(--color1, #1749b3)" d="M33.354 16.066c0 0.401-0.325 0.726-0.726 0.726s-0.726-0.325-0.726-0.726c0-0.401 0.325-0.726 0.726-0.726s0.726 0.325 0.726 0.726z"></path>
<path fill="#000" style="fill: var(--color2, #F9F9F9
)" d="M15.692 27.801c7.617 0 13.791-6.175 13.791-13.791s-6.175-13.791-13.791-13.791c-7.617 0-13.791 6.175-13.791 13.791s6.175 13.791 13.791 13.791z"></path>
<path fill="#011625" style="fill: var(--color3, #011625)" d="M15.631 5.662c-1.503 0-2.722-1.219-2.722-2.722s1.219-2.722 2.722-2.722c1.503 0 2.722 1.219 2.722 2.722s-1.219 2.722-2.722 2.722zM15.571 4.453c0.802 0 1.452-0.65 1.452-1.452s-0.65-1.452-1.452-1.452c-0.802 0-1.452 0.65-1.452 1.452s0.65 1.452 1.452 1.452z"></path>
<path fill="#fe0000" style="fill: var(--color4, #fe0000)" d="M15.577 24.789c2.943 0 5.329-2.386 5.329-5.329s-2.386-5.329-5.329-5.329c-2.943 0-5.329 2.386-5.329 5.329s2.386 5.329 5.329 5.329z"></path>
<path fill="#e1dceb" style="fill: var(--color5, #e1dceb)" d="M24.011 15.498v-4.088c0-2.23-0.886-4.369-2.463-5.946s-3.716-2.463-5.946-2.463c-2.23 0-4.369 0.886-5.946 2.463s-2.463 3.716-2.463 5.946v4.088c0 0.939-0.266 1.859-0.766 2.654s-1.216 1.431-2.064 1.836c-0.195 0.093-0.359 0.239-0.474 0.422s-0.176 0.394-0.175 0.61v0.022c-0 0.078 0.015 0.155 0.045 0.227s0.073 0.137 0.128 0.193c0.055 0.055 0.12 0.099 0.192 0.129s0.149 0.045 0.227 0.045h22.589c0.078 0 0.155-0.015 0.227-0.045s0.137-0.074 0.192-0.129c0.055-0.055 0.099-0.121 0.128-0.193s0.045-0.149 0.045-0.227v-0.022c0-0.215-0.061-0.426-0.175-0.608s-0.279-0.328-0.473-0.42c-0.848-0.405-1.564-1.043-2.065-1.838s-0.766-1.716-0.766-2.656z"></path>
<path fill="#011625" style="fill: var(--color3, #011625)" d="M27.547 21.631h-23.832v-0.726h23.832v0.726z"></path>
<path fill="#011625" style="fill: var(--color3, #011625)" d="M9.051 23.482c-0.579 0.524-1.157 1.038-1.721 1.578-0.122 0.116-0.126 0.307-0.011 0.427 0.116 0.122 0.308 0.125 0.428 0.010 0.561-0.537 1.134-1.047 1.71-1.567 0.124-0.113 0.134-0.304 0.023-0.427-0.113-0.124-0.304-0.134-0.428-0.021z"></path>
<path fill="#011625" style="fill: var(--color3, #011625)" d="M22.143 23.483c0.576 0.524 1.151 1.038 1.712 1.579 0.121 0.116 0.125 0.307 0.009 0.427-0.116 0.121-0.308 0.125-0.428 0.009-0.558-0.537-1.128-1.047-1.7-1.567-0.123-0.113-0.132-0.304-0.020-0.427 0.113-0.124 0.305-0.134 0.428-0.021z"></path>
<path fill="#011625" style="fill: var(--color3, #011625)" d="M15.226 26.869c-0.009 0.78-0.025 1.551-0.012 2.331 0.002 0.168 0.139 0.3 0.306 0.297 0.168-0.003 0.301-0.141 0.298-0.308-0.013-0.775 0.003-1.54 0.012-2.314 0.001-0.167-0.132-0.304-0.298-0.306-0.167-0.001-0.305 0.133-0.306 0.3z"></path>
</symbol>
<symbol id="icon-Chats" viewBox="0 0 39 32">
<path fill="#000" style="fill: var(--color2, #F9F9F9
)" d="M18.866 31.626c8.765 0 15.87-7.027 15.87-15.695s-7.105-15.695-15.87-15.695-15.87 7.027-15.87 15.695c0 8.668 7.105 15.695 15.87 15.695z"></path>
<path fill="#1749b3" style="fill: var(--color1, #1749b3)" d="M32.558 25.936c-0.016 0.001-0.129 0.006-0.172 0.015-0.055 0.011-0.096 0.034-0.124 0.058-0.045 0.038-0.070 0.086-0.077 0.141-0.005 0.037-0.002 0.082 0.023 0.134 0.015 0.030 0.055 0.087 0.14 0.12 0.058 0.023 0.223 0.063 0.244 0.068 0.157 0.069 0.264 0.156 0.364 0.294 0.107 0.147 0.197 0.259 0.242 0.435 0.019 0.074 0.046 0.145 0.067 0.219-0 0.022 0 0.071 0.004 0.090 0.008 0.040 0.024 0.071 0.041 0.094 0.032 0.042 0.073 0.069 0.123 0.081 0.034 0.008 0.076 0.011 0.125-0.006 0.074-0.025 0.161-0.094 0.239-0.2 0.106-0.144 0.209-0.368 0.28-0.449 0.229-0.261 0.624-0.559 0.965-0.643 0.022-0.004 0.045-0.009 0.068-0.014 0.11-0.024 0.181-0.131 0.159-0.24s-0.128-0.182-0.24-0.163c-0.024 0.004-0.047 0.009-0.071 0.015-0.252 0.051-0.45 0.063-0.615-0.002-0.171-0.067-0.297-0.219-0.423-0.468-0.093-0.183-0.11-0.352-0.139-0.551-0.009-0.060-0.018-0.119-0.029-0.179-0.005-0.024-0.007-0.083-0.011-0.102-0.006-0.026-0.014-0.044-0.021-0.056-0.047-0.086-0.118-0.105-0.169-0.109-0.044-0.003-0.090 0.005-0.136 0.037-0.018 0.013-0.060 0.041-0.082 0.117-0.059 0.203-0.079 0.419-0.128 0.622-0.038 0.158-0.095 0.308-0.234 0.424-0.117 0.098-0.27 0.166-0.414 0.217zM33.526 25.648c0.008 0.017 0.016 0.034 0.024 0.051 0.184 0.364 0.39 0.567 0.64 0.666l0.008 0.003c-0.167 0.123-0.319 0.26-0.435 0.392-0.048 0.054-0.111 0.167-0.179 0.283-0.062-0.199-0.163-0.34-0.291-0.517-0.097-0.135-0.199-0.236-0.325-0.318 0.097-0.049 0.19-0.107 0.271-0.175 0.135-0.113 0.224-0.243 0.285-0.385z"></path>
<path fill="#1749b3" style="fill: var(--color1, #1749b3)" d="M1.618 12.872c0 0.411-0.337 0.743-0.752 0.743s-0.752-0.333-0.752-0.743c0-0.411 0.337-0.743 0.752-0.743s0.752 0.333 0.752 0.743z"></path>
<path fill="#011625" style="fill: var(--color3, #011625)" d="M6.161 4.709v0c0.574 0.366 0.948 0.873 1.138 1.522 0.034 0.116 0.155 0.182 0.271 0.148l0-0c0.115-0.033 0.183-0.154 0.149-0.27M6.161 4.709l0.236-0.367c0.666 0.425 1.102 1.015 1.322 1.767M6.161 4.709c-0.101-0.065-0.132-0.2-0.066-0.301s0.2-0.13 0.302-0.066l-0.236 0.367zM7.719 6.108c-0 0-0-0-0-0l0 0c0-0 0-0 0-0z"></path>
<path fill="#011625" style="fill: var(--color3, #011625)" d="M14.393 6.46h0c0.15-0.076 0.204-0.221 0.19-0.376M14.393 6.46l0.121-0.37M14.393 6.46c-0.174 0.088-0.323 0.082-0.442 0.023M14.393 6.46l-0.442 0.023M14.583 6.084l-0.069 0.006M14.583 6.084c0 0 0 0 0 0l-0.069 0.006M14.583 6.084c-0.012-0.142-0.088-0.3-0.128-0.371M14.515 6.090c-0.011-0.126-0.080-0.274-0.12-0.343M14.455 5.713c0 0 0 0 0 0l-0.060 0.034M14.455 5.713l-0.060 0.034M14.455 5.713c-0.083-0.146-0.179-0.284-0.286-0.413 0.517-0.975 1.659-1.372 2.669-0.913l0 0c0.11 0.050 0.239 0.002 0.29-0.107l0-0c0.050-0.109 0.002-0.239-0.109-0.289M14.395 5.747l-5.765 5.725M17.020 3.99c0 0 0 0-0-0l-0.029 0.063M17.020 3.99c0 0 0 0 0 0l-0.029 0.063M17.020 3.99c-1.18-0.536-2.512-0.108-3.167 0.982-0.096-0.087-0.198-0.167-0.304-0.242v0c-1.221-0.861-3.003-0.574-4.358 0.691v0c-0.219 0.204-0.389 0.502-0.52 0.854s-0.227 0.762-0.292 1.196c-0.125 0.83-0.148 1.75-0.141 2.494-0.141-0.328-0.298-0.646-0.465-0.964v0c-0.066-0.125-0.132-0.251-0.198-0.377-0.788-1.507-1.603-3.065-2.907-4.216l-0-0c-0.090-0.079-0.228-0.072-0.308 0.019-0 0-0 0-0 0l0.052 0.046c-0.055 0.061-0.049 0.156 0.013 0.21 1.258 1.111 2.044 2.615 2.811 4.084 0.071 0.135 0.141 0.271 0.212 0.405l-0.061 0.032c0.263 0.5 0.499 0.998 0.681 1.529l0 0c0.007 0.020 0.014 0.041 0.021 0.061 0.048 0.139 0.095 0.275 0.136 0.415 0 0 0 0 0 0s0 0.002 0 0.005 0 0.010-0 0.018c-0 0.006-0.001 0.012-0.001 0.019-0 0.002-0 0.004-0 0.006-0.001 0.009-0.002 0.020-0.002 0.030l-0 0.001c-0.001 0.052 0.001 0.108 0.012 0.152l0 0.001c0.022 0.081 0.070 0.137 0.131 0.168l0 0c0.045 0.023 0.1 0.036 0.166 0.024l0.001-0c0.047-0.009 0.122-0.035 0.163-0.131M16.991 4.053c0.075 0.034 0.108 0.122 0.074 0.197l-0.074-0.197zM8.694 11.5c0-0 0-0 0-0.001l-0.064-0.027M8.694 11.5c-0 0-0 0-0 0.001l-0.063-0.028M8.694 11.5c0.005-0.011 0.008-0.025 0.010-0.035 0.002-0.012 0.004-0.028 0.006-0.046 0.003-0.036 0.005-0.084 0.004-0.143v-0c-0.002-0.061-0.005-0.14-0.009-0.235-0.025-0.635-0.078-1.98 0.067-3.2 0.053-0.451 0.131-0.882 0.247-1.249 0.117-0.368 0.271-0.665 0.472-0.853M8.63 11.472c0.006-0.014 0.017-0.081 0.014-0.195-0.002-0.060-0.005-0.139-0.009-0.234-0.025-0.634-0.078-1.985 0.067-3.212 0.107-0.905 0.313-1.744 0.741-2.144M9.49 5.739c0 0-0 0-0 0l-0.047-0.051M9.49 5.739l-0.047-0.051M9.49 5.739c1.207-1.127 2.759-1.391 3.806-0.653 0.132 0.093 0.256 0.197 0.37 0.311M9.443 5.688c1.222-1.141 2.81-1.423 3.893-0.659 0.145 0.102 0.281 0.218 0.405 0.345M13.741 5.374l-0.067-0.015c-0.003 0.012-0.005 0.025-0.008 0.038M13.741 5.374l-0.050 0.048c-0.009-0.009-0.017-0.017-0.026-0.026M13.741 5.374c-0.046 0.203-0.059 0.558 0.029 0.79l0.182 0.32M13.666 5.396c-0.020 0.102-0.032 0.231-0.030 0.363 0.002 0.147 0.021 0.303 0.069 0.43v0c0.050 0.133 0.133 0.24 0.246 0.296M14.050 6.058c0.016 0.043 0.033 0.081 0.066 0.097l-0.066-0.097zM14.050 6.058c-0.028-0.072-0.043-0.161-0.048-0.25l0.048 0.25zM14.114 6.034v0c0.008 0.021 0.014 0.036 0.021 0.047 0.003 0.005 0.005 0.008 0.007 0.009-0.011-0.045-0.031-0.092-0.050-0.129 0.006 0.026 0.013 0.050 0.022 0.072zM14.143 6.092c-0.001-0-0.001 0 0.001-0l-0.001 0z"></path>
<path fill="#011625" style="fill: var(--color3, #011625)" d="M14.86 8.379h20.681c1.833 0 3.319 1.486 3.319 3.319v3.102c0 1.833-1.486 3.319-3.319 3.319h-20.681c-1.833 0-3.319-1.486-3.319-3.319v-3.102c0-1.833 1.486-3.319 3.319-3.319z"></path>
<path fill="#ccc6d9" style="fill: var(--color6, #ccc6d9)" d="M23.457 11.732h7.935c0.353 0 0.639 0.286 0.639 0.639v0c0 0.353-0.286 0.639-0.639 0.639h-7.935c-0.353 0-0.639-0.286-0.639-0.639v0c0-0.353 0.286-0.639 0.639-0.639z"></path>
<path fill="#fff" style="fill: var(--color7, #fff)" d="M14.563 13.648h16.876c0.353 0 0.639 0.286 0.639 0.639v0c0 0.353-0.286 0.639-0.639 0.639h-16.876c-0.353 0-0.639-0.286-0.639-0.639v0c0-0.353 0.286-0.639 0.639-0.639z"></path>
<path fill="#e1dceb" style="fill: var(--color5, #e1dceb)" d="M36.954 13.329c0 0.882-0.711 1.597-1.588 1.597s-1.588-0.715-1.588-1.597c0-0.882 0.711-1.597 1.588-1.597s1.588 0.715 1.588 1.597z"></path>
<path fill="#e1dceb" style="fill: var(--color5, #e1dceb)" d="M3.434 16.522h20.681c1.833 0 3.319 1.486 3.319 3.319v3.102c0 1.833-1.486 3.319-3.319 3.319h-20.681c-1.833 0-3.319-1.486-3.319-3.319v-3.102c0-1.833 1.486-3.319 3.319-3.319z"></path>
<path fill="#fe0000" style="fill: var(--color4, #fe0000)" d="M7.583 19.875h7.935c0.353 0 0.639 0.286 0.639 0.639v0c0 0.353-0.286 0.639-0.639 0.639h-7.935c-0.353 0-0.639-0.286-0.639-0.639v0c0-0.353 0.286-0.639 0.639-0.639z"></path>
<path fill="#fff" style="fill: var(--color7, #fff)" d="M7.583 21.791h16.876c0.353 0 0.639 0.286 0.639 0.639v0c0 0.353-0.286 0.639-0.639 0.639h-16.876c-0.353 0-0.639-0.286-0.639-0.639v0c0-0.353 0.286-0.639 0.639-0.639z"></path>
<path fill="#fe0000" style="fill: var(--color4, #fe0000)" d="M5.674 21.472c0 0.882-0.711 1.597-1.588 1.597s-1.588-0.715-1.588-1.597c0-0.882 0.711-1.597 1.588-1.597s1.588 0.715 1.588 1.597z"></path>
</symbol>
<symbol id="icon-Successful" viewBox="0 0 37 32">
<path fill="#000" style="fill: var(--color2, #F9F9F9
)" d="M19.582 31.983c7.483 0 13.55-6.066 13.55-13.55s-6.066-13.55-13.55-13.55-13.55 6.066-13.55 13.55c0 7.483 6.066 13.55 13.55 13.55z"></path>
<path fill="#e1dceb" style="fill: var(--color5, #e1dceb)" d="M11.413 23.681l5.694-15.634 12.006 12.695-13.945 6.401c-2.234 1.025-4.596-1.153-3.755-3.462z"></path>
<path fill="#011625" style="fill: var(--color3, #011625)" d="M24.663 12.984c1.658 1.766 2.994 3.517 3.814 4.92 0.411 0.702 0.69 1.313 0.818 1.794 0.064 0.24 0.089 0.445 0.074 0.611s-0.067 0.287-0.154 0.369-0.213 0.127-0.378 0.131c-0.166 0.004-0.369-0.034-0.605-0.113-0.472-0.158-1.064-0.476-1.739-0.93-1.348-0.908-3.010-2.352-4.668-4.118s-2.994-3.517-3.814-4.92c-0.41-0.702-0.69-1.313-0.818-1.794-0.064-0.24-0.088-0.445-0.074-0.611s0.067-0.287 0.154-0.369 0.213-0.127 0.378-0.131c0.166-0.004 0.369 0.034 0.605 0.113 0.472 0.158 1.064 0.476 1.739 0.93 1.348 0.908 3.011 2.352 4.668 4.118z"></path>
<path fill="#011625" style="fill: var(--color3, #011625)" d="M16.84 18.442c-2.405-3.15-3.623-6.906-4.015-9.427l1.937-0.302c0.353 2.27 1.469 5.701 3.636 8.539 2.147 2.812 5.288 5.005 9.769 5.005v1.96c-5.228 0-8.901-2.598-11.327-5.775z"></path>
<path fill="#fff" style="fill: var(--color7, #fff)" d="M17.098 17.84c-2.406-3.15-3.623-6.906-4.015-9.427l1.937-0.302c0.353 2.27 1.469 5.701 3.636 8.539 2.147 2.812 5.288 5.005 9.769 5.005v1.96c-5.228 0-8.901-2.598-11.327-5.775z"></path>
<path fill="#fff" style="fill: var(--color7, #fff)" d="M14 22.402c-2.406-3.15-3.623-6.906-4.015-9.427l1.937-0.302c0.353 2.27 1.469 5.701 3.636 8.539 2.147 2.812 5.288 5.005 9.768 5.005v1.96c-5.228 0-8.901-2.598-11.327-5.775z"></path>
<path fill="#fe0000" style="fill: var(--color4, #fe0000)" d="M25.866 24.949c0 1.911-1.549 3.459-3.459 3.459s-3.459-1.549-3.459-3.459c0-1.911 1.549-3.459 3.459-3.459s3.459 1.549 3.459 3.459z"></path>
<path fill="#fff" style="fill: var(--color7, #fff)" d="M23.807 23.899c0.134 0.136 0.132 0.355-0.004 0.489l-1.642 1.614c-0.135 0.132-0.35 0.132-0.485 0l-0.664-0.653c-0.136-0.134-0.138-0.353-0.004-0.489s0.353-0.138 0.489-0.004l0.421 0.414 1.4-1.376c0.136-0.134 0.355-0.132 0.489 0.004z"></path>
<path fill="#011625" style="fill: var(--color3, #011625)" d="M29.172 8.432h0c0.205-0.52 0.286-1.038 0.372-1.582 0.015-0.093 0.029-0.186 0.045-0.28l-0.416 1.862zM29.172 8.432c-0.035 0.089-0.135 0.133-0.224 0.098l-0-0c-0.089-0.034-0.133-0.135-0.098-0.223v-0c0.195-0.496 0.272-0.993 0.351-1.498 0.015-0.098 0.030-0.195 0.046-0.293M29.172 8.432l0.075-1.918M29.247 6.515c0.015-0.094 0.105-0.158 0.199-0.143s0.158 0.104 0.143 0.198l-0.342-0.056zM28.796 8.285c-0.047 0.118 0.012 0.252 0.13 0.298l0.217-1.783c-0.078 0.505-0.154 0.994-0.347 1.484z"></path>
<path fill="#011625" style="fill: var(--color3, #011625)" d="M30.362 9.819l0-0c1.191-0.825 2.358-1.935 3.225-3.097l-3.225 3.097zM30.362 9.819c-0.078 0.054-0.186 0.035-0.241-0.043s-0.035-0.185 0.043-0.24c1.161-0.804 2.299-1.886 3.145-3.020l0-0M30.362 9.819l2.947-3.303M33.309 6.516c0.057-0.076 0.165-0.092 0.242-0.035s0.092 0.165 0.036 0.241l-0.278-0.206z"></path>
<path fill="#011625" style="fill: var(--color3, #011625)" d="M30.369 10.676c0.037-0.121 0.166-0.19 0.288-0.152 0.868 0.265 1.816 0.126 2.67-0.119l-2.958 0.271zM30.369 10.676c-0.037 0.121 0.031 0.25 0.153 0.287l-0.153-0.287zM33.343 10.46c-0.858 0.245-1.819 0.388-2.703 0.118h-0c-0.091-0.028-0.188 0.024-0.216 0.114v0c-0.028 0.090 0.024 0.187 0.115 0.215l2.804-0.448zM33.343 10.46c0.092-0.026 0.188 0.027 0.214 0.119l0 0c0.026 0.091-0.026 0.186-0.119 0.213-0.934 0.267-1.962 0.402-2.9 0.116l2.804-0.448z"></path>
<path fill="#1749b3" style="fill: var(--color1, #1749b3)" d="M31.286 12.61c0 0.382-0.31 0.692-0.692 0.692s-0.692-0.31-0.692-0.692c0-0.382 0.31-0.692 0.692-0.692s0.692 0.31 0.692 0.692z"></path>
<path fill="#1749b3" style="fill: var(--color1, #1749b3)" d="M25.52 5.461c0 0.382-0.31 0.692-0.692 0.692s-0.692-0.31-0.692-0.692c0-0.382 0.31-0.692 0.692-0.692s0.692 0.31 0.692 0.692z"></path>
<path fill="#1749b3" style="fill: var(--color1, #1749b3)" d="M26.159 8.512c-0.060-0.247-0.411-0.247-0.471 0l-0.077 0.32c-0.021 0.088-0.090 0.157-0.179 0.179l-0.32 0.077c-0.247 0.060-0.247 0.411 0 0.471l0.32 0.077c0.088 0.021 0.157 0.090 0.179 0.179l0.077 0.32c0.060 0.247 0.411 0.247 0.471 0l0.077-0.32c0.021-0.088 0.090-0.157 0.179-0.179l0.32-0.077c0.247-0.060 0.247-0.411 0-0.471l-0.32-0.077c-0.088-0.021-0.157-0.090-0.179-0.179l-0.077-0.32z"></path>
<path fill="#e3e3e3" style="fill: var(--color8, #e3e3e3)" d="M23.21 3.19c0.070 0.178-0.018 0.379-0.195 0.449-0.508 0.2-1.158 0.842-1.592 1.643-0.331 0.609-0.491 1.224-0.424 1.728 0.203-0.29 0.446-0.528 0.728-0.68 0.506-0.274 1.082-0.245 1.641 0.136 0.488 0.332 0.687 0.806 0.634 1.277-0.050 0.451-0.325 0.858-0.698 1.114-0.379 0.26-0.881 0.38-1.4 0.221-0.294-0.090-0.576-0.264-0.834-0.528-0.246 0.958-0.237 2.158 0.17 3.22 0.068 0.178-0.021 0.378-0.199 0.447s-0.378-0.021-0.447-0.199c-0.536-1.4-0.467-2.998-0.029-4.163-0.012-0.022-0.025-0.045-0.037-0.068-0.46-0.869-0.185-1.963 0.287-2.832 0.476-0.876 1.23-1.674 1.947-1.956 0.178-0.070 0.379 0.018 0.449 0.195zM21.341 7.793c0.261 0.371 0.532 0.551 0.765 0.622 0.293 0.090 0.58 0.025 0.806-0.13 0.232-0.159 0.377-0.397 0.402-0.62 0.023-0.203-0.048-0.432-0.336-0.628-0.365-0.249-0.665-0.238-0.921-0.099s-0.509 0.429-0.716 0.856z"></path>
<path fill="#ccc6d9" style="fill: var(--color6, #ccc6d9)" d="M34.377 16.72c-3.626-1.348-6.401 0.328-7.299 1.276-0.219 0.231-0.584 0.241-0.815 0.022s-0.241-0.584-0.022-0.815c1.14-1.204 4.383-3.108 8.538-1.564 0.298 0.111 0.45 0.443 0.34 0.741s-0.443 0.451-0.741 0.34z"></path>
<path fill="#1749b3" style="fill: var(--color1, #1749b3)" d="M30.689 17.932c0.081-0.030 0.166-0.069 0.232-0.126 0.078-0.068 0.11-0.155 0.131-0.247 0.027-0.118 0.038-0.244 0.071-0.362 0.012-0.044 0.036-0.060 0.046-0.068 0.026-0.019 0.052-0.024 0.076-0.022 0.029 0.002 0.069 0.013 0.095 0.063 0.004 0.007 0.009 0.018 0.012 0.033 0.002 0.011 0.004 0.045 0.006 0.059 0.006 0.035 0.012 0.069 0.016 0.104 0.016 0.116 0.026 0.214 0.078 0.321 0.070 0.144 0.141 0.233 0.236 0.272 0.092 0.038 0.203 0.031 0.344 0.001 0.013-0.003 0.027-0.006 0.040-0.009 0.062-0.011 0.122 0.031 0.134 0.095s-0.027 0.126-0.089 0.14c-0.013 0.003-0.026 0.006-0.038 0.008-0.191 0.049-0.412 0.222-0.54 0.374-0.040 0.047-0.098 0.178-0.157 0.261-0.044 0.062-0.093 0.102-0.134 0.116-0.028 0.010-0.051 0.008-0.070 0.003-0.028-0.007-0.051-0.023-0.069-0.047-0.010-0.014-0.019-0.032-0.023-0.055-0.002-0.011-0.002-0.039-0.002-0.052-0.012-0.043-0.027-0.084-0.038-0.127-0.026-0.102-0.076-0.167-0.136-0.253-0.056-0.080-0.116-0.131-0.204-0.171-0.011-0.003-0.104-0.026-0.136-0.039-0.048-0.020-0.070-0.052-0.079-0.070-0.014-0.030-0.015-0.056-0.013-0.078 0.004-0.032 0.018-0.060 0.043-0.082 0.015-0.014 0.038-0.027 0.069-0.034 0.024-0.005 0.087-0.008 0.096-0.009zM31.23 17.765c0.004 0.010 0.009 0.020 0.014 0.030 0.103 0.212 0.218 0.33 0.358 0.387l0.005 0.002c-0.094 0.072-0.179 0.151-0.243 0.228-0.027 0.032-0.062 0.097-0.1 0.164-0.035-0.116-0.091-0.198-0.163-0.3-0.054-0.078-0.112-0.137-0.182-0.185 0.054-0.029 0.106-0.062 0.152-0.102 0.075-0.065 0.125-0.141 0.16-0.224z"></path>
<path fill="#011625" style="fill: var(--color3, #011625)" d="M10.62 18.248v0c-0.45 0.405-0.705 0.906-0.78 1.507-0.012 0.105-0.108 0.179-0.212 0.166h-0c-0.104-0.013-0.178-0.108-0.165-0.213M10.62 18.248l-1.1 1.467M10.62 18.248c0.078-0.070 0.085-0.191 0.014-0.269s-0.19-0.085-0.268-0.015M10.62 18.248l-0.215-0.241M9.463 19.708c0 0 0-0 0-0l0.057 0.007M9.463 19.708c0 0 0 0-0 0l0.057 0.007M9.463 19.708c0.086-0.694 0.382-1.275 0.903-1.744M9.52 19.715c0.084-0.681 0.374-1.249 0.884-1.708M10.366 17.964c0 0-0 0-0 0l0.039 0.043M10.366 17.964l0.039 0.043"></path>
<path fill="#011625" style="fill: var(--color3, #011625)" d="M3.679 20.952h-0c-0.14-0.045-0.207-0.164-0.217-0.302M3.679 20.952l-0.159-0.306M3.679 20.952c0.164 0.053 0.292 0.027 0.387-0.041l-0.387 0.041zM3.462 20.65l0.058-0.004M3.462 20.65c0 0 0 0 0 0l0.058-0.004M3.462 20.65c-0.009-0.126 0.034-0.275 0.059-0.344M3.52 20.646c-0.009-0.113 0.031-0.253 0.056-0.32M3.521 20.306l0.054 0.020M3.521 20.306c0 0 0-0 0-0l0.054 0.020M3.521 20.306c0.052-0.142 0.117-0.278 0.193-0.407-0.591-0.793-1.649-0.984-2.468-0.435l-0 0c-0.088 0.059-0.205 0.034-0.264-0.053l-0-0c-0.058-0.087-0.035-0.206 0.053-0.264M3.575 20.326l0.49 0.585c0.090-0.065 0.147-0.17 0.172-0.293v0c0.024-0.118 0.018-0.258-0.001-0.388-0.017-0.117-0.046-0.23-0.078-0.317 0.084-0.117 0.178-0.227 0.281-0.329 0.811-0.8 2.206-0.785 3.422 0.042 0.203 0.138 0.38 0.379 0.535 0.689s0.283 0.679 0.394 1.069v0c0.3 1.058 0.445 2.253 0.513 2.818 0.010 0.085 0.019 0.155 0.026 0.209v0c0.007 0.052 0.016 0.095 0.024 0.126 0.004 0.015 0.008 0.029 0.012 0.039 0.003 0.009 0.007 0.020 0.013 0.029 0.048 0.077 0.116 0.090 0.158 0.091h0.001c0.059 0.001 0.105-0.018 0.14-0.044l0-0c0.048-0.036 0.082-0.091 0.089-0.164l0-0c0.004-0.040-0.002-0.089-0.011-0.135l-0-0.001c-0.002-0.009-0.004-0.018-0.006-0.026-0-0.002-0.001-0.003-0.001-0.005-0.002-0.006-0.003-0.012-0.004-0.017-0.002-0.007-0.002-0.012-0.003-0.016s-0-0.006-0-0.006c0 0 0 0 0 0M1.035 19.146c0-0 0-0 0-0l0.032 0.048M1.035 19.146c0 0-0 0-0 0l0.032 0.048M1.035 19.146c0.955-0.639 2.179-0.447 2.905 0.424 0.072-0.091 0.151-0.177 0.233-0.259h0c0.943-0.931 2.539-0.928 3.901-0.001v0c0.219 0.149 0.41 0.388 0.575 0.68s0.306 0.641 0.424 1.014c0.229 0.722 0.38 1.539 0.48 2.2 0.077-0.315 0.171-0.624 0.273-0.934v0c0.040-0.12 0.079-0.24 0.119-0.361 0.474-1.442 0.965-2.932 1.94-4.132l0-0c0.067-0.081 0.186-0.094 0.268-0.027s0.093 0.187 0.027 0.268v0c-0.934 1.149-1.404 2.579-1.866 3.985-0.042 0.129-0.085 0.258-0.127 0.387v0c-0.159 0.478-0.294 0.952-0.378 1.447v0c-0.003 0.019-0.007 0.038-0.010 0.057-0.022 0.129-0.044 0.257-0.060 0.386M1.067 19.194c-0.061 0.041-0.077 0.123-0.037 0.185l0.037-0.185zM9.74 24.281c0 0-0 0-0 0l0-0zM3.921 20.553c-0.008 0.040-0.017 0.076-0.044 0.095l0.044-0.095zM3.921 20.553c0.014-0.070 0.014-0.153 0.006-0.236l-0.006 0.236zM3.845 20.6c-0.001 0-0.002 0-0.003 0-0 0-0 0-0.001-0s0-0.001 0-0.001c0.003-0.054 0.021-0.114 0.034-0.152-0.001 0.034-0.004 0.065-0.010 0.094l-0 0c-0.004 0.020-0.007 0.034-0.012 0.045-0.003 0.008-0.006 0.012-0.008 0.013z"></path>
</symbol>
<symbol id="icon-Copy" viewBox="0 0 28 32">
<path d="M7.444 7.353v-4.333c0-0.383 0.152-0.75 0.423-1.021s0.638-0.423 1.021-0.423h17.333c0.383 0 0.75 0.152 1.021 0.423s0.423 0.638 0.423 1.021v20.222c0 0.383-0.152 0.75-0.423 1.021s-0.638 0.423-1.021 0.423h-4.333v4.333c0 0.797-0.65 1.444-1.454 1.444h-17.313c-0.191 0.001-0.379-0.035-0.556-0.107s-0.337-0.178-0.472-0.312-0.242-0.294-0.316-0.47c-0.073-0.176-0.111-0.364-0.111-0.555l0.004-20.222c0-0.797 0.65-1.444 1.455-1.444h4.319zM4.56 10.242l-0.004 17.333h14.444v-17.333h-14.44zM10.333 7.353h11.556v14.444h2.889v-17.333h-14.444v2.889z"></path>
</symbol>
<symbol id="icon-Lang" viewBox="0 0 64 32">
<path  d="M31.999 20.691l19.8-19.8 5.656 5.656-25.456 25.456-25.456-25.456 5.656-5.656 19.8 19.8z"></path>
</symbol>

//Social media icons
<symbol id="icon-telegram" viewBox="0 0 32 32">
<path   d="M16 29.333c-7.364 0-13.333-5.969-13.333-13.333s5.969-13.333 13.333-13.333 13.333 5.969 13.333 13.333c0 7.364-5.969 13.333-13.333 13.333zM11.853 17.56l0.017-0.009 1.16 3.827c0.149 0.415 0.355 0.489 0.604 0.455 0.251-0.033 0.383-0.168 0.547-0.325l1.584-1.531 3.4 2.517c0.621 0.343 1.068 0.165 1.223-0.576l2.209-10.429c0.244-0.971-0.183-1.36-0.936-1.051l-12.977 5.013c-0.885 0.355-0.88 0.851-0.16 1.071l3.329 1.039z"></path>
</symbol>
<symbol id="icon-whatsapp" viewBox="0 0 32 32">
<path  d="M2.672 29.333l1.803-6.624c-1.188-2.036-1.812-4.352-1.808-6.709 0-7.364 5.969-13.333 13.333-13.333s13.333 5.969 13.333 13.333c0 7.364-5.969 13.333-13.333 13.333-2.356 0.004-4.671-0.62-6.707-1.807l-6.621 1.807zM11.188 9.744c-0.172 0.011-0.34 0.056-0.495 0.133-0.145 0.082-0.277 0.184-0.392 0.304-0.16 0.151-0.251 0.281-0.348 0.408-0.493 0.641-0.758 1.428-0.753 2.237 0.003 0.653 0.173 1.289 0.44 1.884 0.545 1.203 1.443 2.476 2.628 3.656 0.285 0.284 0.564 0.569 0.864 0.835 1.471 1.295 3.224 2.229 5.12 2.728l0.759 0.116c0.247 0.013 0.493-0.005 0.741-0.017 0.388-0.020 0.767-0.125 1.111-0.308 0.221-0.117 0.325-0.176 0.511-0.293 0 0 0.057-0.037 0.167-0.12 0.18-0.133 0.291-0.228 0.44-0.384 0.111-0.115 0.207-0.249 0.28-0.403 0.104-0.217 0.208-0.632 0.251-0.977 0.032-0.264 0.023-0.408 0.019-0.497-0.005-0.143-0.124-0.291-0.253-0.353l-0.776-0.348c0 0-1.16-0.505-1.868-0.828-0.075-0.032-0.155-0.051-0.236-0.055-0.091-0.009-0.183 0.001-0.27 0.030s-0.167 0.077-0.234 0.139v-0.003c-0.007 0-0.096 0.076-1.060 1.244-0.055 0.074-0.131 0.131-0.219 0.161s-0.182 0.035-0.272 0.012c-0.087-0.023-0.172-0.053-0.255-0.088-0.165-0.069-0.223-0.096-0.336-0.145l-0.007-0.003c-0.763-0.333-1.469-0.783-2.093-1.333-0.168-0.147-0.324-0.307-0.484-0.461-0.525-0.502-0.982-1.071-1.36-1.691l-0.079-0.127c-0.056-0.085-0.102-0.177-0.136-0.273-0.051-0.196 0.081-0.353 0.081-0.353s0.324-0.355 0.475-0.547c0.126-0.159 0.242-0.325 0.351-0.497 0.157-0.253 0.207-0.513 0.124-0.715-0.373-0.912-0.76-1.82-1.157-2.721-0.079-0.179-0.312-0.307-0.524-0.332-0.072-0.008-0.144-0.016-0.216-0.021-0.179-0.009-0.358-0.007-0.537 0.005v0.001z"></path>
</symbol>

//
<symbol id="icon-Open" viewBox="0 0 32 32">
<path fill="#171717" style="fill: var(--color1, #171717)" opacity="0.05" d="M9.6 0h12.8c5.302 0 9.6 4.298 9.6 9.6v12.8c0 5.302-4.298 9.6-9.6 9.6h-12.8c-5.302 0-9.6-4.298-9.6-9.6v-12.8c0-5.302 4.298-9.6 9.6-9.6z"></path>
<path fill="#3a3a3c" style="fill: var(--color2, #3a3a3c)" d="M20.834 15.489c0.56-0.404 0.665-1.159 0.235-1.685s-1.232-0.625-1.792-0.221l-4.053 2.929c-0.56 0.404-0.665 1.159-0.235 1.685s1.232 0.625 1.792 0.221l4.053-2.929z"></path>
<path fill="#3a3a3c" style="fill: var(--color2, #3a3a3c)" d="M12.722 13.586c-0.56-0.404-1.362-0.304-1.792 0.223s-0.323 1.281 0.237 1.685l4.057 2.924c0.56 0.404 1.362 0.304 1.792-0.223s0.323-1.281-0.237-1.685l-4.057-2.924z"></path>
</symbol>
//Modal icons
<symbol id="icon-About" viewBox="0 0 32 32">
<path  d="M0 17.778h14.222v-17.778h-14.222v17.778zM0 32h14.222v-10.667h-14.222v10.667zM17.778 32h14.222v-17.778h-14.222v17.778zM17.778 0v10.667h14.222v-10.667h-14.222z"></path>
</symbol>
<symbol id="icon-FAQ" viewBox="0 0 32 32">
<path  d="M16 32c-8.837 0-16-7.163-16-16s7.163-16 16-16c8.837 0 16 7.163 16 16s-7.163 16-16 16zM14.4 20.8v3.2h3.2v-3.2h-3.2zM17.6 18.168c1.286-0.388 2.39-1.224 3.111-2.357s1.011-2.487 0.817-3.816c-0.194-1.329-0.859-2.544-1.873-3.424s-2.311-1.366-3.654-1.37c-1.295-0-2.549 0.448-3.551 1.269s-1.688 1.963-1.942 3.232l3.139 0.629c0.089-0.446 0.303-0.857 0.617-1.186s0.714-0.562 1.155-0.672c0.441-0.11 0.904-0.093 1.336 0.050s0.814 0.405 1.102 0.757c0.288 0.351 0.471 0.778 0.526 1.229s-0.018 0.909-0.213 1.32c-0.194 0.411-0.502 0.758-0.886 1.001s-0.829 0.372-1.284 0.372c-0.424 0-0.831 0.169-1.131 0.469s-0.469 0.707-0.469 1.131v2.4h3.2v-1.032z"></path>
</symbol>
<symbol id="icon-Home" viewBox="0 0 36 32">
<path  d="M30.707 30.371c0 0.432-0.17 0.846-0.473 1.152s-0.714 0.477-1.143 0.477h-22.626c-0.429 0-0.84-0.172-1.143-0.477s-0.473-0.72-0.473-1.152v-14.658h-4.848l16.69-15.29c0.298-0.273 0.685-0.424 1.088-0.424s0.79 0.151 1.088 0.424l16.69 15.29h-4.849v14.658zM12.929 14.085v9.772h9.697v-9.772h-9.697zM16.162 17.342h3.232v3.257h-3.232v-3.257z"></path>
</symbol><symbol id="icon-Support" viewBox="0 0 29 32">
<path  d="M27.2 32h-25.6c-0.424 0-0.831-0.169-1.131-0.469s-0.469-0.707-0.469-1.131v-20.8h28.8v20.8c0 0.424-0.169 0.831-0.469 1.131s-0.707 0.469-1.131 0.469zM28.8 6.4h-28.8v-4.8c0-0.424 0.169-0.831 0.469-1.131s0.707-0.469 1.131-0.469h25.6c0.424 0 0.831 0.169 1.131 0.469s0.469 0.707 0.469 1.131v4.8zM6.4 14.4v6.4h6.4v-6.4h-6.4zM6.4 24v3.2h16v-3.2h-16zM16 16v3.2h6.4v-3.2h-6.4z"></path>
</symbol>
<symbol id="icon-CloseModal" viewBox="0 0 32 32">
<path   d="M32 16c0 8.837-7.163 16-16 16s-16-7.163-16-16c0-8.837 7.163-16 16-16s16 7.163 16 16z"></path>
<path  style="fill: var(--color2,#fff)" d="M15.998 14.653l4.714-4.714 1.347 1.347-4.714 4.714 4.714 4.714-1.347 1.347-4.714-4.714-4.714 4.714-1.347-1.347 4.714-4.714-4.714-4.714 1.347-1.347 4.714 4.714z"></path>
</symbol>
<symbol id="icon-Close" viewBox="0 0 32 32">
<path  opacity="0.1" d="M16 0c8.837 0 16 7.163 16 16s-7.163 16-16 16c-8.837 0-16-7.163-16-16s7.163-16 16-16z"></path>
<path fill="#3a3a3c" style="fill: var(--color2, #3a3a3c)" d="M16.001 14.869l3.96-3.96 1.131 1.131-3.96 3.96 3.96 3.96-1.131 1.131-3.96-3.96-3.96 3.96-1.131-1.131 3.96-3.96-3.96-3.96 1.131-1.131 3.96 3.96z"></path>
</symbol>

<symbol id="icon-Done" viewBox="0 0 32 32">
<path fill="#5c5c5c" style="fill: var(--color1, #5c5c5c)" d="M16 32c-8.837 0-16-7.163-16-16s7.163-16 16-16c8.837 0 16 7.163 16 16s-7.163 16-16 16zM14.405 22.4l11.312-11.314-2.262-2.262-9.050 9.051-4.526-4.526-2.262 2.262 6.789 6.789z"></path>
</symbol>

//providers
<symbol id="icon-netflix" viewBox="0 0 32 32">
<path fill="#b1060f" style="fill: var(--color1, #b1060f)" d="M18.517 0.094l-0.025 14.081-0.578-1.634v-0.004l-0.75 15.674c0.738 2.079 1.132 3.189 1.136 3.193s0.423 0.029 0.93 0.054c1.534 0.075 3.436 0.239 4.882 0.419 0.335 0.042 0.62 0.063 0.641 0.046s0.025-7.183 0.021-15.929l-0.013-15.9h-6.244z"></path>
<path fill="#b1060f" style="fill: var(--color1, #b1060f)" d="M7.223 0.073v15.917c0 8.755 0.008 15.925 0.021 15.938s0.553-0.042 1.207-0.113c0.654-0.071 1.555-0.163 2.003-0.201 0.687-0.059 2.749-0.189 2.984-0.193 0.071 0 0.075-0.356 0.084-6.743l0.013-6.743 0.499 1.408c0.075 0.218 0.101 0.285 0.176 0.499l0.75-15.67c-0.159-0.448-0.075-0.214-0.256-0.725-0.612-1.731-1.132-3.193-1.152-3.26l-0.042-0.117h-6.286z"></path>
<path fill="#b1060f" style="fill: var(--color1, #b1060f)" d="M7.223 0.073v8.935l6.295 16.696c0-0.381 0-0.591 0.004-1.027l0.013-6.743 0.499 1.408c2.766 7.845 4.254 12.053 4.262 12.061 0.004 0.004 0.423 0.029 0.93 0.054 1.534 0.075 3.436 0.239 4.882 0.419 0.335 0.042 0.62 0.063 0.641 0.046 0.013-0.013 0.021-3.524 0.021-8.482l-6.261-18.012-0.004 1.706-0.013 7.041-0.578-1.634c-0.566-1.597-0.943-2.665-3.219-9.094-0.612-1.731-1.132-3.193-1.152-3.26l-0.042-0.117-6.278 0.004z"></path>
<path fill="#e50914" style="fill: var(--color2, #e50914)" d="M7.223 0.073l6.307 17.874v-0.008l0.499 1.408c2.77 7.841 4.258 12.049 4.266 12.057 0.004 0.004 0.423 0.029 0.93 0.054 1.534 0.075 3.436 0.239 4.882 0.419 0.331 0.042 0.62 0.063 0.637 0.046l-6.253-17.748-0.578-1.634c-0.566-1.597-0.943-2.665-3.219-9.094-0.612-1.731-1.132-3.193-1.152-3.26l-0.042-0.117-6.278 0.004z"></path>
<symbol id="icon-spotify-logo" viewBox="-10 0 135 32">
<path fill="#FFFFFF" style="fill: var(--color1, #FFFFFF)" d="M15.975 0.026c-8.822 0-15.975 7.152-15.975 15.975s7.152 15.974 15.975 15.974c8.823 0 15.975-7.152 15.975-15.974s-7.152-15.974-15.975-15.974l0-0.001zM23.301 23.065c-0.178 0.288-0.492 0.477-0.849 0.477-0.192 0-0.372-0.055-0.524-0.149l0.004 0.002c-3.751-2.291-8.472-2.81-14.033-1.539-0.066 0.016-0.143 0.025-0.221 0.025-0.472 0-0.867-0.328-0.97-0.768l-0.001-0.007c-0.016-0.067-0.025-0.144-0.025-0.223 0-0.471 0.328-0.866 0.767-0.968l0.007-0.001c6.085-1.39 11.305-0.792 15.516 1.782 0.469 0.288 0.618 0.9 0.33 1.37zM25.256 18.716c-0.361 0.586-1.127 0.771-1.713 0.41-4.294-2.639-10.839-3.404-15.918-1.862-0.659 0.199-1.354-0.172-1.554-0.83-0.034-0.108-0.053-0.232-0.053-0.36 0-0.559 0.368-1.032 0.875-1.191l0.009-0.002c5.802-1.76 13.014-0.908 17.945 2.123 0.586 0.361 0.771 1.127 0.41 1.712zM25.424 14.186c-5.149-3.058-13.643-3.339-18.559-1.847-0.789 0.239-1.624-0.206-1.863-0.996-0.041-0.13-0.064-0.279-0.064-0.434 0-0.671 0.442-1.238 1.050-1.427l0.011-0.003c5.643-1.713 15.023-1.382 20.951 2.137 0.442 0.265 0.733 0.741 0.733 1.284 0 0.282-0.078 0.545-0.214 0.77l0.004-0.007c-0.42 0.71-1.339 0.944-2.047 0.522zM43.462 14.772c-2.758-0.658-3.249-1.119-3.249-2.089 0-0.916 0.862-1.533 2.146-1.533 1.244 0 2.476 0.468 3.769 1.432 0.038 0.029 0.088 0.041 0.135 0.033 0.050-0.007 0.092-0.034 0.12-0.073l0-0.001 1.347-1.898c0.021-0.029 0.033-0.065 0.033-0.105 0-0.057-0.026-0.108-0.067-0.141l-0-0c-1.539-1.235-3.272-1.835-5.297-1.835-2.978 0-5.059 1.787-5.059 4.344 0 2.742 1.795 3.713 4.897 4.463 2.638 0.608 3.085 1.117 3.085 2.028 0 1.009-0.9 1.637-2.35 1.637-1.61 0-2.924-0.544-4.393-1.814-0.032-0.027-0.075-0.044-0.121-0.044-0.004 0-0.008 0-0.011 0l0.001-0c-0.050 0.004-0.093 0.027-0.124 0.063l-1.511 1.797c-0.063 0.076-0.055 0.187 0.017 0.252 1.709 1.526 3.811 2.331 6.081 2.331 3.209 0 5.282-1.753 5.282-4.468 0.006-2.29-1.366-3.559-4.725-4.376zM55.453 12.052c-1.391 0-2.531 0.548-3.474 1.67v-1.264c0-0 0-0.001 0-0.001 0-0.099-0.080-0.18-0.179-0.18h-2.47c-0.099 0-0.179 0.081-0.179 0.181v14.040c0 0.099 0.080 0.181 0.179 0.181h2.47c0.099 0 0.179-0.082 0.179-0.181v-4.431c0.942 1.055 2.083 1.572 3.474 1.572 2.585 0 5.202-1.99 5.202-5.793 0.004-3.804-2.613-5.794-5.2-5.794zM57.782 17.846c0 1.936-1.192 3.288-2.901 3.288-1.688 0-2.962-1.414-2.962-3.288s1.274-3.288 2.962-3.288c1.681-0 2.901 1.382 2.901 3.288zM67.36 12.052c-3.329 0-5.936 2.563-5.936 5.836 0 3.238 2.59 5.773 5.896 5.773 3.34 0 5.955-2.554 5.955-5.814 0-3.249-2.598-5.794-5.915-5.794zM67.36 21.154c-1.77 0-3.106-1.423-3.106-3.308 0-1.894 1.29-3.268 3.066-3.268 1.782 0 3.125 1.422 3.125 3.31 0 1.894-1.297 3.267-3.085 3.267zM80.383 12.278h-2.718v-2.779c0-0 0-0.001 0-0.001 0-0.099-0.080-0.18-0.179-0.18h-2.47c-0.099 0-0.181 0.081-0.181 0.181v2.779h-1.187c-0.099 0-0.179 0.081-0.179 0.181v2.123c0 0.1 0.080 0.181 0.179 0.181h1.187v5.493c0 2.219 1.105 3.344 3.285 3.344 0.885 0 1.62-0.183 2.312-0.576 0.057-0.031 0.092-0.092 0.092-0.156v-2.022c0-0.061-0.032-0.12-0.086-0.153-0.027-0.017-0.059-0.028-0.094-0.028-0.030 0-0.058 0.007-0.082 0.020l0.001-0c-0.475 0.238-0.935 0.349-1.45 0.349-0.792 0-1.146-0.361-1.146-1.166v-5.105h2.718c0.099 0 0.179-0.081 0.179-0.181v-2.122c0-0.002 0-0.004 0-0.006 0-0.097-0.078-0.175-0.175-0.175-0.001 0-0.002 0-0.003 0h0zM89.852 12.289v-0.341c0-1.004 0.385-1.452 1.248-1.452 0.515 0 0.929 0.102 1.393 0.257 0.057 0.018 0.116 0.009 0.162-0.025 0.045-0.033 0.074-0.086 0.074-0.145 0-0.001 0-0.001 0-0.002v0-2.081c0-0.001 0-0.001 0-0.002 0-0.081-0.053-0.149-0.127-0.171l-0.001-0c-0.488-0.146-1.114-0.295-2.053-0.295-2.28 0-3.487 1.285-3.487 3.713v0.523h-1.187c-0.099 0-0.181 0.081-0.181 0.181v2.133c0 0.1 0.082 0.181 0.181 0.181h1.187v8.471c0 0.101 0.082 0.181 0.181 0.181h2.468c0.101 0 0.181-0.080 0.181-0.181v-8.47h2.306l3.533 8.47c-0.401 0.889-0.795 1.066-1.333 1.066-0.435 0-0.895-0.13-1.362-0.387-0.026-0.013-0.056-0.021-0.089-0.021-0.019 0-0.038 0.003-0.056 0.008l0.001-0c-0.048 0.017-0.088 0.052-0.107 0.097l-0.837 1.837c-0.040 0.088-0.006 0.189 0.078 0.235 0.874 0.473 1.662 0.675 2.636 0.675 1.824 0 2.833-0.851 3.72-3.136l4.284-11.071c0.008-0.020 0.013-0.043 0.013-0.067 0-0.038-0.012-0.073-0.032-0.102l0 0.001c-0.032-0.048-0.086-0.079-0.147-0.079-0 0-0 0-0 0h-2.571c-0.078 0-0.147 0.049-0.172 0.121l-2.634 7.522-2.884-7.527c-0.026-0.068-0.092-0.116-0.168-0.116h-4.22zM84.362 12.278h-2.47c-0.099 0-0.181 0.081-0.181 0.181v10.774c0 0.101 0.082 0.181 0.181 0.181h2.47c0.099 0 0.181-0.080 0.181-0.181v-10.773c0-0 0-0 0-0 0-0.1-0.081-0.181-0.181-0.181-0 0-0 0-0.001 0h0zM83.141 7.372c-0.979 0-1.772 0.792-1.772 1.77s0.794 1.772 1.772 1.772 1.77-0.793 1.77-1.772c0-0.978-0.794-1.77-1.77-1.77zM104.777 15.742c-0.977 0-1.738-0.785-1.738-1.738s0.771-1.747 1.747-1.747 1.738 0.785 1.738 1.737c0 0.953-0.771 1.748-1.747 1.748zM104.787 12.43c-0.891 0-1.564 0.708-1.564 1.574s0.67 1.564 1.555 1.564c0.891 0 1.564-0.707 1.564-1.574s-0.67-1.564-1.555-1.564zM105.172 14.173l0.492 0.688h-0.416l-0.443-0.631h-0.38v0.631h-0.347v-1.824h0.813c0.425 0 0.704 0.217 0.704 0.582 0.002 0.299-0.172 0.482-0.422 0.554zM104.878 13.35h-0.452v0.577h0.452c0.225 0 0.361-0.11 0.361-0.289 0-0.188-0.135-0.288-0.361-0.288z"></path>
<symbol id="icon-youtube-logo" viewBox="-10 0 173 32">
<path fill="#f00" style="fill: var(--color1, #f00)" d="M44.687 5.011c-0.547-1.974-2.071-3.497-4.004-4.035l-0.040-0.010c-3.436-0.936-16.936-0.966-17.777-0.966h-0.050c-0.436 0-14.318 0.045-17.81 0.997-1.973 0.547-3.495 2.069-4.032 4.002l-0.010 0.040c-1.073 6.302-1.489 15.902 0.028 21.95 0.546 1.975 2.070 3.498 4.004 4.035l0.040 0.010c3.436 0.939 16.936 0.966 17.777 0.966h0.081c0.841 0 14.344-0.028 17.777-0.966 1.975-0.546 3.498-2.070 4.035-4.004l0.010-0.040c1.131-6.31 1.48-15.902-0.028-21.978z"></path>
<path fill="#fff" style="fill: var(--color2, #fff)" d="M18.282 22.858l11.838-6.858-11.838-6.858z"></path>
<path fill="#212121" style="fill: var(--color3, #212121)" d="M55.148 21.084l-5.131-18.729h4.486s2.098 9.394 2.816 13.81h0.12c0.813-4.687 2.871-13.81 2.871-13.81h4.489l-5.193 18.698v8.978h-4.427v-8.947h-0.031zM113.777 9.824v20.237h-3.52l-0.383-2.489h-0.087c-0.966 1.866-2.405 2.816-4.313 2.816-3.45-0.011-3.835-2.964-3.869-5.453v-15.112h4.517v14.844c0 0.888 0.087 1.542 0.293 1.927 0.416 0.824 1.494 0.612 2.081 0.207 0.338-0.233 0.606-0.543 0.784-0.905l0.006-0.014v-16.059h4.489zM124.539 21.321c0 1.48-0.059 2.637-0.176 3.466s-0.321 1.422-0.615 1.777c-0.293 0.358-0.676 0.534-1.145 0.534-0.908-0.031-1.425-0.444-1.788-1.067v-11.497c0.145-0.561 0.411-1.006 0.79-1.36 0.645-0.735 1.749-0.743 2.26 0 0.263 0.355 0.411 0.978 0.528 1.835 0.087 0.86 0.145 2.075 0.145 3.673v2.64zM128.676 13.053c-0.265-1.274-0.704-2.193-1.321-2.785-0.615-0.564-1.436-0.86-2.522-0.86-0.824-0.003-1.631 0.246-2.316 0.712-0.735 0.472-1.263 1.095-1.673 1.866h-0.028v-10.668h-4.341v28.712h3.726l0.466-1.925h0.089c0.358 0.679 0.897 1.243 1.553 1.628 0.704 0.385 1.466 0.595 2.318 0.595 1.525 0 2.64-0.712 3.371-2.134 0.704-1.425 1.087-3.645 1.087-6.64v-3.198c0-2.254-0.148-4.031-0.411-5.304zM102.897 6.031h-4.489v24.031h-4.399v-24.031h-4.486v-3.676h13.344v3.676h0.031zM90.637 9.824v20.237h-3.52l-0.383-2.489h-0.087c-0.969 1.866-2.405 2.816-4.313 2.816-3.45-0.011-3.835-2.964-3.869-5.453v-15.112h4.517v14.844c0 0.888 0.087 1.542 0.293 1.927 0.416 0.824 1.494 0.612 2.081 0.207 0.338-0.233 0.606-0.543 0.784-0.905l0.006-0.014v-16.059h4.489zM136.067 12.936c-0.237 0.296-0.383 0.74-0.469 1.391-0.089 0.651-0.117 2.964-0.117 2.964v1.453h3.285v-1.453c0 1.453-0.031-2.282-0.12-2.964-0.087-0.682-0.232-1.154-0.469-1.422-0.232-0.268-0.584-0.416-1.056-0.416-0.497 0.031-0.849 0.179-1.053 0.447zM135.48 21.469v1.036l0.117 2.933c0.087 0.651 0.232 1.126 0.469 1.422 0.235 0.296 0.615 0.444 1.115 0.444 0.673 0 1.142-0.265 1.377-0.799 0.263-0.534 0.383-1.422 0.411-2.637l3.899 0.237c0.031 0.176 0.031 0.413 0.031 0.709 0 1.869-0.497 3.26-1.525 4.179-1.025 0.919-2.433 1.394-4.282 1.394-2.229 0-3.785-0.712-4.662-2.106-0.88-1.391-1.349-3.584-1.349-6.517v-3.587c0.098-5.036 0.975-8.726 6.129-8.74 1.556 0 2.726 0.296 3.55 0.858 0.821 0.564 1.408 1.453 1.76 2.668 0.349 1.215 0.497 2.874 0.497 5.008v3.466h-7.536v0.031zM71.193 26.299c0.263-0.654 0.38-1.749 0.38-3.232v-6.31c0-1.453-0.117-2.52-0.38-3.17-0.265-0.682-0.704-1.008-1.321-1.008-0.615 0-1.025 0.327-1.29 1.008-0.263 0.682-0.38 1.718-0.38 3.17v6.31c0 1.483 0.117 2.578 0.352 3.232 0.235 0.651 0.673 0.978 1.318 0.978 0.617 0 1.056-0.327 1.321-0.978zM66.117 29.469c-0.908-0.623-1.553-1.57-1.936-2.874-0.38-1.304-0.556-3.022-0.556-5.187v-2.933c0-2.162 0.204-3.941 0.645-5.243 0.439-1.335 1.115-2.282 2.053-2.874s2.14-0.919 3.637-0.919c1.466 0 2.668 0.296 3.547 0.919 0.88 0.62 1.556 1.57 1.966 2.874 0.411 1.302 0.615 3.050 0.615 5.215v2.933c0 2.162-0.204 3.88-0.615 5.184s-1.056 2.251-1.966 2.874c-0.908 0.592-2.14 0.919-3.665 0.919-1.584 0.031-2.816-0.296-3.726-0.888z"></path>
</symbol>
</symbol>

//email validation

<symbol id="icon-invalid" viewBox="0 0 32 32">
<path fill="#fd4646" style="fill: var(--color1, #fd4646)" d="M15.999 30.667c-8.1 0-14.667-6.566-14.667-14.667s6.566-14.667 14.667-14.667c8.1 0 14.667 6.566 14.667 14.667s-6.566 14.667-14.667 14.667zM14.533 20.4v2.933h2.933v-2.933h-2.933zM14.533 8.667v8.8h2.933v-8.8h-2.933z"></path>
</symbol>
<symbol id="icon-Valid" viewBox="0 0 32 32">
<path  d="M16 30.667c-8.1 0-14.667-6.566-14.667-14.667s6.566-14.667 14.667-14.667c8.1 0 14.667 6.566 14.667 14.667s-6.566 14.667-14.667 14.667zM14.538 21.867l10.369-10.371-2.074-2.074-8.295 8.297-4.149-4.149-2.074 2.074 6.223 6.223z"></path>
</symbol>
<symbol id="icon-closeEye" viewBox="0 0 58 32">
<path fill="#9c99ad" style="fill: var(--color1, #9c99ad)" d="M22.649 30.986l-4.681-1.256 1.908-7.125c-2.856-1.053-5.51-2.588-7.847-4.538l-5.219 5.222-3.43-3.43 5.222-5.219c-2.948-3.53-4.928-7.765-5.748-12.291l4.771-0.87c1.84 10.187 10.752 17.915 21.469 17.915 10.715 0 19.629-7.728 21.469-17.915l4.771 0.868c-0.819 4.526-2.798 8.762-5.745 12.293l5.219 5.219-3.43 3.43-5.219-5.222c-2.337 1.95-4.991 3.485-7.847 4.538l1.908 7.127-4.681 1.253-1.91-7.127c-3 0.514-6.066 0.514-9.067 0l-1.91 7.127z"></path>
</symbol>
<symbol id="icon-openEye" viewBox="0 0 40 32">
<path fill="#1749b3" style="fill: var(--color1, #1749b3)" d="M20 1c8.987 0 16.463 6.467 18.032 15-1.567 8.533-9.045 15-18.032 15s-16.463-6.467-18.032-15c1.567-8.533 9.045-15 18.032-15zM20 27.667c3.399-0.001 6.697-1.155 9.355-3.275s4.517-5.078 5.274-8.392c-0.76-3.311-2.62-6.267-5.277-8.383s-5.954-3.269-9.351-3.269c-3.397 0-6.694 1.153-9.351 3.269s-4.518 5.072-5.277 8.383c0.757 3.314 2.616 6.273 5.274 8.392s5.956 3.274 9.355 3.275zM20 23.5c-1.989 0-3.897-0.79-5.303-2.197s-2.197-3.314-2.197-5.303 0.79-3.897 2.197-5.303c1.407-1.407 3.314-2.197 5.303-2.197s3.897 0.79 5.303 2.197c1.406 1.407 2.197 3.314 2.197 5.303s-0.79 3.897-2.197 5.303c-1.407 1.407-3.314 2.197-5.303 2.197zM20 20.167c1.105 0 2.165-0.439 2.946-1.22s1.22-1.841 1.22-2.946c0-1.105-0.439-2.165-1.22-2.946s-1.841-1.22-2.946-1.22c-1.105 0-2.165 0.439-2.946 1.22s-1.22 1.841-1.22 2.946c0 1.105 0.439 2.165 1.22 2.946s1.841 1.22 2.946 1.22z"></path>
</symbol>

//Auth
<symbol id="icon-GoodleAuth" viewBox="0 0 32 32">
<path fill="#ffc107" style="fill: var(--color1, #ffc107)" d="M29.074 13.389h-1.074v-0.055h-12v5.333h7.535c-1.099 3.105-4.053 5.333-7.535 5.333-4.418 0-8-3.582-8-8s3.582-8 8-8c2.039 0 3.895 0.769 5.307 2.026l3.771-3.771c-2.381-2.219-5.567-3.588-9.079-3.588-7.363 0-13.333 5.97-13.333 13.333s5.97 13.333 13.333 13.333c7.363 0 13.333-5.97 13.333-13.333 0-0.894-0.092-1.767-0.259-2.611z"></path>
<path fill="#ff3d00" style="fill: var(--color2, #ff3d00)" d="M4.204 9.794l4.381 3.213c1.185-2.935 4.056-5.007 7.415-5.007 2.039 0 3.895 0.769 5.307 2.026l3.771-3.771c-2.381-2.219-5.567-3.588-9.079-3.588-5.121 0-9.563 2.891-11.796 7.127z"></path>
<path fill="#4caf50" style="fill: var(--color3, #4caf50)" d="M16 29.333c3.444 0 6.573-1.318 8.939-3.461l-4.127-3.492c-1.339 1.014-3.003 1.62-4.813 1.62-3.468 0-6.413-2.211-7.522-5.297l-4.348 3.35c2.207 4.318 6.688 7.281 11.87 7.281z"></path>
<path fill="#1976d2" style="fill: var(--color4, #1976d2)" d="M29.074 13.389h-1.074v-0.055h-12v5.333h7.535c-0.528 1.491-1.487 2.777-2.725 3.714 0.001-0.001 0.001-0.001 0.002-0.001l4.127 3.492c-0.292 0.265 4.394-3.205 4.394-9.871 0-0.894-0.092-1.767-0.259-2.611z"></path>
</symbol>
<symbol id="icon-FacebookAuth" viewBox="0 0 32 32">
<path fill="#039be5" style="fill: var(--color1, #039be5)" d="M16 3.333c-6.996 0-12.667 5.671-12.667 12.667s5.671 12.667 12.667 12.667v0c6.996 0 12.667-5.671 12.667-12.667s-5.671-12.667-12.667-12.667v0z"></path>
<path fill="#fff" style="fill: var(--color2, #fff)" d="M17.715 19.357h3.278l0.515-3.33h-3.793v-1.82c0-1.383 0.452-2.61 1.746-2.61h2.079v-2.906c-0.365-0.049-1.138-0.157-2.598-0.157-3.049 0-4.836 1.61-4.836 5.278v2.215h-3.134v3.33h3.134v9.153c0.621 0.093 1.249 0.157 1.895 0.157 0.583 0 1.153-0.053 1.715-0.129v-9.18z"></path>
</symbol>
<symbol id="icon-AppleAuth" viewBox="0 0 32 32">
<path d="M21.048 1.28c0.109 1.574-0.404 2.841-1.162 3.77-1.114 1.367-2.756 2.004-3.724 1.815-0.182-1.092 0.269-2.486 1.188-3.61 0.865-1.058 2.145-1.876 3.698-1.976zM16.371 8.269c1.105 0 2.301-1.119 4.27-1.119 0.888 0 3.432 0.268 4.835 2.426-0.557 0.404-2.616 1.7-2.616 4.649 0 3.475 2.815 4.678 3.242 4.898-0.154 0.574-0.896 2.566-2.147 4.125-0.387 0.483-1.551 2.335-3.288 2.335-1.578 0-2.178-0.977-3.999-0.977-2.074 0-2.173 0.994-4.19 0.994-0.424 0-1.045-0.191-1.538-0.625-1.749-1.54-4.633-5.52-4.633-10.484 0-4.905 3.253-7.26 6.106-7.26 1.795-0.001 2.817 1.037 3.959 1.037z"></path>
</symbol>
</symbol>



</defs>
</svg>